# xmcd
#
# Track frame offsets:
#	150
#	19120
#	33656
#	44708
#	57323
#	72419
#	86725
#	102046
#	114404
#	131460
#	145187
#	161508
#
# Disc length: 2505 seconds
#
# Revision: 0
# Processed by: cddbd v1.5.2PL0 Copyright (c) Steve Scherf et al.
# Submitted via: EZCDAudioConverter 7.0.6.1
#
DISCID=a609c70c
DTITLE=Revelation - Revelation (1969)
DYEAR=1900
DGENRE=
TTITLE0=Jerusalem
TTITLE1=This Is Your Life
TTITLE2=Paper Chase
TTITLE3=Pocketful Of Keys
TTITLE4=One Of The Nicer Things
TTITLE5=Beyond Myself
TTITLE6=See You Then
TTITLE7=If This Was The Last Song
TTITLE8=Shepherd's Daughter
TTITLE9=Evie
TTITLE10=Someone Is Standing Outside
TTITLE11=Psalm 150
EXTD=
EXTT0=
EXTT1=
EXTT2=
EXTT3=
EXTT4=
EXTT5=
EXTT6=
EXTT7=
EXTT8=
EXTT9=
EXTT10=
EXTT11=
PLAYORDER=
